<svg width="24" height="24" viewBox="0 0 24 24" fill="none" xmlns="http://www.w3.org/2000/svg">
    <path d="M14.8499 3.6541L13.4097 7.20973C13.3309 7.41227 13.0946 7.51354 12.8808 7.43478C12.712 7.36726 12.622 7.20973 12.6333 7.04095L12.8245 3.21527C12.8583 2.63017 13.3534 2.19134 13.9272 2.21384C14.5124 2.2476 14.9512 2.74269 14.9287 3.31654C14.9174 3.42906 14.8837 3.54158 14.8499 3.6541Z" fill="#F16037"/>
    <path fill-rule="evenodd" clip-rule="evenodd" d="M18.3942 2H20.7459C21.0047 2 21.2522 2.2588 21.2409 2.49509C21.2409 2.77398 21.108 2.88926 21.0176 2.96765C21.0132 2.97149 21.0089 2.97525 21.0047 2.97893L15.3786 8.41365C15.1986 8.60493 14.8948 8.60493 14.7148 8.41365C14.5685 8.26737 14.546 8.05358 14.636 7.87355C14.636 7.87355 17.3252 2.8439 17.539 2.45008C17.7528 2.05626 18.2142 2 18.3942 2ZM21.8711 11.9241C21.8711 17.4151 17.4265 21.8597 11.9355 21.8597C6.4558 21.8597 2 17.4151 2 11.9241C2 6.91698 5.70191 2.77624 10.5178 2.08986C10.5389 2.08459 10.56 2.08179 10.5799 2.07914C10.6025 2.07614 10.6236 2.07334 10.6415 2.06736C10.7991 2.07861 10.9341 2.17988 10.9791 2.33741L10.9904 2.48369L11.3729 6.95073L11.3842 7.07451C11.3729 7.23204 11.2604 7.35581 11.1141 7.40082C11.0916 7.40082 11.0691 7.40082 11.0466 7.41207C8.93124 7.82839 7.3222 9.69623 7.3222 11.9354C7.3222 14.4783 9.38132 16.5487 11.9355 16.5487C14.4785 16.5487 16.5376 14.4896 16.5489 11.9579V11.9466V11.9241V11.9016C16.5601 11.7441 16.6614 11.6203 16.8077 11.5753L16.8752 11.5641L21.3422 10.6414L21.4435 10.6189H21.466C21.6348 10.6189 21.781 10.7314 21.826 10.9002C21.826 10.9159 21.8285 10.9315 21.8311 10.9483C21.8341 10.9677 21.8373 10.9886 21.8373 11.0127C21.8598 11.294 21.8711 11.6091 21.8711 11.9241ZM15.0861 11.9242C15.0861 13.6571 13.6796 15.0748 11.9468 15.0748C10.214 15.0748 8.79621 13.6683 8.79621 11.9242C8.79621 10.1914 10.2027 8.77368 11.9468 8.77368C13.6796 8.78493 15.0861 10.1914 15.0861 11.9242Z" fill="url(#logo_linear_gradient_2)"/>
    <path d="M20.2394 9.04368L16.5938 10.2251C16.38 10.2927 16.155 10.1801 16.0874 9.96635C16.0312 9.79757 16.0987 9.61754 16.2225 9.51627L19.2718 7.19835C19.7331 6.84954 20.397 6.93956 20.7458 7.40089C21.0946 7.86222 21.0046 8.52609 20.5432 8.8749C20.4532 8.95367 20.3407 9.00993 20.2394 9.04368Z" fill="#F16037"/>
    <defs>
        <linearGradient id="logo_linear_gradient_2" x1="2" y1="14.1364" x2="21.8711" y2="14.1364" gradientUnits="userSpaceOnUse">
            <stop stop-color="#97C93D"/>
            <stop offset="1" stop-color="#4FBA69"/>
        </linearGradient>
    </defs>
</svg>